# xmcd
#
# Track frame offsets: 
#        150
#        26546
#        44375
#        60484
#        72012
#        85531
#        105781
#        126827
#        142139
#        170739
#        186279
#
# Disc length: 2725 seconds
#
# Revision: 2
# Processed by: cddbd v1.5.2PL0 Copyright (c) Steve Scherf et al.
# Submitted via: ExactAudioCopyFreeDBPlugin 1.0
#
DISCID=8f0aa30b
DTITLE=Songs 4 Worship - Surrender - Disc 2
DYEAR=2003
DGENRE=Praise and Worship
TTITLE0=Eugene Greco - In The Presence
TTITLE1=Don Moen - You Are My God
TTITLE2=The Brentwood Singers - The Greatest Thing
TTITLE3=The Maranatha! Singers - Thy Loving Kindness
TTITLE4=The Maranatha! Singers - The Sweetest Name Of All
TTITLE5=The Maranatha! Singers - Jesus What A Wonder You Are
TTITLE6=Graham Kendrick - Amazing Love (My Lord What Love Is This?)
TTITLE7=Tommy Walker - He Knows My Name
TTITLE8=John Chisum - Come Expecting Jesus
TTITLE9=Lenny LeBlanc - There Is None Like You
TTITLE10=St. Louis Jesuits - Here I Am Lord
EXTD=
EXTT0=
EXTT1=
EXTT2=
EXTT3=
EXTT4=
EXTT5=
EXTT6=
EXTT7=
EXTT8=
EXTT9=
EXTT10=
PLAYORDER=
